<svg width="97" height="97" viewBox="0 0 97 97" fill="none" xmlns="http://www.w3.org/2000/svg">
<g clip-path="url(#clip0)">
<rect x="15" y="15" width="63" height="65" fill="white"/>
<path d="M6.10759 3.21109L12.4031 83.7506C12.4976 84.96 13.3162 85.9913 14.4727 86.358L47.5997 96.8608C48.1855 97.0465 48.8145 97.0465 49.4003 96.8608L82.5273 86.358C83.6838 85.9913 84.5024 84.96 84.5969 83.7506L90.8924 3.21109C91.0278 1.47953 89.6593 0 87.9226 0H9.0776C7.34091 0 5.97242 1.47953 6.10759 3.21109ZM74.7481 28.1998H33.7191L34.9573 39.618H73.8557L71.3111 72.1697L48.5001 79.4018L25.6891 72.1697L24.3598 55.1634H36.3327V63.5052L48.8201 66.8566L61.2328 63.5052L62.1957 50.2107H23.9726L21.4349 17.7443H75.5651L74.7481 28.1998Z" fill="#FC490B"/>
</g>
<defs>
<clipPath id="clip0">
<rect width="97" height="97" fill="white"/>
</clipPath>
</defs>
</svg>
