<svg width="232" height="310" viewBox="0 0 232 310" fill="none" xmlns="http://www.w3.org/2000/svg">
<path d="M73.0173 86.1105C88.9952 86.1105 101.948 73.7371 101.948 58.4737C101.948 43.2104 88.9952 30.837 73.0173 30.837C57.0393 30.837 44.0867 43.2104 44.0867 58.4737C44.0867 73.7371 57.0393 86.1105 73.0173 86.1105Z" fill="#FFB6B6"/>
<path d="M181.267 253.483L181.942 267.263L126.624 276.31L125.627 255.973L181.267 253.483Z" fill="#FFB6B6"/>
<path d="M195.077 249.343L196.613 280.67L196.025 280.696C191.48 280.982 186.953 279.936 183.047 277.697C179.516 275.548 177.482 272.57 177.323 269.313V269.312L176.385 250.179L195.077 249.343Z" fill="#2F2E41"/>
<path d="M179.719 276.158L194.16 276.157L201.03 222.947L179.717 222.948L179.719 276.158Z" fill="#FFB6B6"/>
<path d="M176.036 271.654L204.475 271.653H204.476C206.856 271.653 209.213 272.1 211.412 272.97C213.611 273.84 215.609 275.116 217.292 276.723C218.975 278.331 220.31 280.24 221.221 282.34C222.131 284.441 222.6 286.692 222.6 288.966V289.528L176.037 289.53L176.036 271.654Z" fill="#2F2E41"/>
<path d="M43.3851 263.268C44.9673 262.353 46.3201 261.117 47.3481 259.647C48.3762 258.178 49.0545 256.512 49.3354 254.765C49.6162 253.018 49.4928 251.234 48.9737 249.538C48.4546 247.842 47.5525 246.275 46.3309 244.948L57.8571 135.402L30.4057 137.235L27.7078 244.339C25.51 246.447 24.1981 249.252 24.0207 252.222C23.8432 255.193 24.8126 258.122 26.745 260.455C28.6774 262.789 31.4386 264.364 34.5055 264.882C37.5724 265.401 40.7318 264.826 43.3851 263.268V263.268Z" fill="#FFB6B6"/>
<path d="M57.7227 154.391L29.2773 151.079C28.4679 150.985 27.6893 150.725 26.9945 150.318C26.2997 149.91 25.7051 149.364 25.251 148.717C24.797 148.07 24.4942 147.338 24.3634 146.569C24.2325 145.8 24.2767 145.013 24.4928 144.262L32.0675 117.948C32.5955 113.995 34.743 110.403 38.0389 107.96C41.3349 105.517 45.5105 104.423 49.65 104.916C53.7896 105.41 57.5553 107.452 60.1215 110.594C62.6876 113.736 63.8448 117.721 63.3392 121.677L64.081 148.871C64.1019 149.65 63.947 150.423 63.6267 151.14C63.3064 151.856 62.8283 152.498 62.2249 153.022C61.6215 153.545 60.907 153.939 60.1301 154.175C59.3532 154.412 58.5321 154.485 57.7227 154.391Z" fill="#1891F6"/>
<path d="M53.7437 278.785C50.2967 278.56 46.973 277.47 44.1086 275.624C41.2441 273.778 38.9405 271.243 37.4304 268.274C35.9204 265.306 35.2575 262.009 35.5087 258.717C35.7599 255.425 36.9163 252.255 38.8611 249.527L57.4416 231.101L125.171 173.151L161.381 144.448C163.494 142.773 166.017 141.639 168.714 141.15C171.412 140.661 174.195 140.835 176.803 141.655C179.411 142.475 181.758 143.914 183.625 145.837C185.491 147.76 186.816 150.105 187.475 152.651L206.392 225.756C206.71 226.972 206.543 228.257 205.923 229.363C205.304 230.468 204.277 231.313 203.042 231.736L182.418 238.828C181.728 239.065 180.993 239.163 180.261 239.115C179.529 239.068 178.815 238.875 178.164 238.55C177.514 238.224 176.942 237.774 176.483 237.226C176.025 236.679 175.69 236.046 175.501 235.368L167.656 207.265L124.006 247.128L137.625 251.917C138.874 252.362 139.903 253.238 140.508 254.372C141.114 255.506 141.252 256.816 140.895 258.043L136.494 272.938C136.19 273.977 135.546 274.896 134.656 275.559C133.765 276.222 132.676 276.596 131.547 276.624L53.7437 278.785Z" fill="#434343"/>
<path d="M51.8936 237.235L50.102 174.725L38.8009 147.308C36.4935 141.714 35.4937 135.706 35.8715 129.705C36.2493 123.703 37.9956 117.853 40.9881 112.564C43.9807 107.275 48.1471 102.675 53.1959 99.0848C58.2447 95.4951 64.0537 93.0028 70.2165 91.7825C71.1468 91.5978 72.0744 91.418 72.9993 91.2429C78.911 90.1219 85.0029 90.1954 90.883 91.4587C96.7632 92.722 102.301 95.1472 107.141 98.5782C111.981 102.009 116.016 106.37 118.985 111.38C121.955 116.39 123.794 121.939 124.383 127.669L129.694 174.728L129.672 174.818C121.204 210.8 96.6998 230.603 52.5545 237.138L51.8936 237.235Z" fill="url(#paint0_linear)"/>
<path d="M78.6212 193.814C79.2654 193.719 79.9165 193.673 80.5682 193.676L113.266 147.433L107.074 135.235L125.123 123.902L138.282 144.478C139.345 146.141 139.815 148.087 139.622 150.027C139.428 151.966 138.581 153.793 137.208 155.233L92.4562 202.169C93.1591 204.472 93.1114 206.925 92.3196 209.201C91.5277 211.477 90.0292 213.469 88.0233 214.912C86.0174 216.354 83.5992 217.18 81.0904 217.278C78.5816 217.375 76.1011 216.741 73.9787 215.46C71.8564 214.178 70.1929 212.309 69.2093 210.102C68.2258 207.895 67.969 205.455 68.4729 203.105C68.9769 200.755 70.2178 198.608 72.0306 196.948C73.8434 195.288 76.1422 194.195 78.6212 193.814Z" fill="#FFB6B6"/>
<path d="M110.405 146.574C109.671 146.378 108.99 146.034 108.408 145.564C107.827 145.094 107.358 144.509 107.035 143.851L95.7261 120.847C93.57 117.747 92.7888 113.956 93.5537 110.306C94.3186 106.656 96.5672 103.445 99.8067 101.376C103.046 99.3069 107.012 98.5495 110.835 99.2694C114.658 99.9894 118.027 102.128 120.202 105.216L138.069 124.157C138.579 124.698 138.961 125.337 139.188 126.031C139.416 126.725 139.485 127.458 139.39 128.18C139.294 128.902 139.037 129.596 138.636 130.215C138.234 130.833 137.698 131.362 137.064 131.764L114.765 145.915C114.13 146.318 113.412 146.585 112.66 146.699C111.907 146.813 111.138 146.77 110.405 146.574Z" fill="#1891F6"/>
<path d="M103.591 60.8919L102.385 57.9559C99.0578 49.8558 91.1024 43.6296 82.5887 42.4624C78.3411 41.9316 74.0229 42.5635 70.1365 44.2849C66.25 46.0062 62.955 48.7463 60.6347 52.1862C58.6654 55.4497 57.1106 58.9259 56.0033 62.5412C55.6238 63.6176 55.2413 64.3966 54.5066 64.6322C53.6793 64.9165 52.8562 64.4296 51.492 63.6216C51.1877 63.4417 50.8362 63.3481 50.4784 63.3518C50.1205 63.3555 49.7712 63.4563 49.4711 63.6425C49.1709 63.8287 48.9325 64.0925 48.7834 64.4033C48.6344 64.7141 48.5809 65.0589 48.6293 65.3976L50.0598 75.153L48.8627 74.1352C41.0737 67.5126 39.4735 55.05 45.1002 47.1431L32.2948 49.6564L32.8717 48.6048C38.19 38.799 47.3564 31.4037 58.3667 28.0361L46.101 25.4558L47.3407 24.7259C58.325 18.2619 72.8159 18.444 84.2559 25.1792C90.0016 28.6955 94.7605 33.5001 98.1183 39.1748C101.476 44.8494 103.331 51.2221 103.522 57.738L103.591 60.8919Z" fill="#2F2E41"/>
<defs>
<linearGradient id="paint0_linear" x1="82.7438" y1="90.4534" x2="82.7438" y2="237.235" gradientUnits="userSpaceOnUse">
<stop stop-color="#1891F6"/>
<stop offset="1" stop-color="#1891F6"/>
</linearGradient>
</defs>
</svg>
