<svg width="50" height="50" viewBox="0 0 50 50" fill="none" xmlns="http://www.w3.org/2000/svg">
<rect width="50" height="50" rx="6" fill="url(#paint0_linear)"/>
<path d="M20.147 29.311C20.147 30.433 20.015 31.489 19.751 32.479C19.509 33.469 19.069 34.338 18.431 35.086C17.815 35.812 16.968 36.395 15.89 36.835C14.834 37.253 13.492 37.462 11.864 37.462C10.368 37.462 9.081 37.286 8.003 36.934C6.925 36.56 6.034 36.131 5.33 35.647L7.046 31.654C7.684 32.028 8.366 32.358 9.092 32.644C9.818 32.93 10.61 33.073 11.468 33.073C12.722 33.073 13.624 32.765 14.174 32.149C14.724 31.533 14.999 30.499 14.999 29.047V14.131H20.147V29.311ZM30.2548 32.809C30.4968 32.831 30.7718 32.853 31.0798 32.875C31.4098 32.875 31.7948 32.875 32.2348 32.875C34.8088 32.875 36.7118 32.226 37.9438 30.928C39.1978 29.63 39.8248 27.837 39.8248 25.549C39.8248 23.151 39.2308 21.336 38.0428 20.104C36.8548 18.872 34.9738 18.256 32.3998 18.256C32.0478 18.256 31.6848 18.267 31.3108 18.289C30.9368 18.289 30.5848 18.311 30.2548 18.355V32.809ZM45.1378 25.549C45.1378 27.529 44.8298 29.256 44.2138 30.73C43.5978 32.204 42.7178 33.425 41.5738 34.393C40.4518 35.361 39.0768 36.087 37.4488 36.571C35.8208 37.055 33.9948 37.297 31.9708 37.297C31.0468 37.297 29.9688 37.253 28.7368 37.165C27.5048 37.099 26.2948 36.945 25.1068 36.703V14.428C26.2948 14.208 27.5268 14.065 28.8028 13.999C30.1008 13.911 31.2118 13.867 32.1358 13.867C34.0938 13.867 35.8648 14.087 37.4488 14.527C39.0548 14.967 40.4298 15.66 41.5738 16.606C42.7178 17.552 43.5978 18.762 44.2138 20.236C44.8298 21.71 45.1378 23.481 45.1378 25.549Z" fill="white"/>
<defs>
<linearGradient id="paint0_linear" x1="25" y1="0" x2="25" y2="50" gradientUnits="userSpaceOnUse">
<stop stop-color="#00C9FF"/>
<stop offset="1" stop-color="#92FE9D"/>
</linearGradient>
</defs>
</svg>
